<svg width="106" height="120" viewBox="0 0 106 120" fill="none" xmlns="http://www.w3.org/2000/svg">
<path d="M98.0102 24.6402L60.2802 2.24023C58.0302 0.910234 55.5102 0.240234 53.0002 0.240234C50.4902 0.240234 47.9702 0.910235 45.7202 2.25023L7.9802 24.6502C3.4802 27.3202 0.700195 32.2602 0.700195 37.6102V82.4102C0.700195 87.7602 3.47019 92.7002 7.9802 95.3702L45.7102 117.77C47.9602 119.11 50.4702 119.77 52.9902 119.77C55.5002 119.77 58.0202 119.1 60.2702 117.77L98.0102 95.3702C102.51 92.7002 105.29 87.7502 105.29 82.4102V37.6002C105.29 32.2602 102.52 27.3102 98.0102 24.6402V24.6402ZM68.7902 94.5902L68.8502 97.8102C68.8502 98.2002 68.6002 98.6402 68.3002 98.8002L66.3902 99.9002C66.0902 100.05 65.8302 99.8702 65.8302 99.4802L65.8002 96.3102C64.1702 96.9902 62.5102 97.1502 61.4602 96.7302C61.2602 96.6502 61.1702 96.3602 61.2502 96.0202L61.9402 93.1102C62.0002 92.8802 62.1202 92.6502 62.2802 92.5102C62.3402 92.4502 62.4002 92.4102 62.4602 92.3802C62.5702 92.3202 62.6802 92.3102 62.7702 92.3502C63.9102 92.7302 65.3602 92.5502 66.7602 91.8502C68.5402 90.9502 69.7302 89.1302 69.7102 87.3302C69.6902 85.6902 68.8102 85.0202 66.6602 85.0002C63.9202 85.0102 61.3602 84.4702 61.3202 80.4302C61.2902 77.1102 63.0102 73.6502 65.7502 71.4702L65.7202 68.2202C65.7202 67.8202 65.9602 67.3802 66.2702 67.2202L68.1202 66.0402C68.4202 65.8902 68.6802 66.0802 68.6802 66.4702L68.7102 69.7202C70.0702 69.1802 71.2502 69.0302 72.3202 69.2802C72.5502 69.3402 72.6602 69.6602 72.5602 70.0302L71.8402 72.9102C71.7802 73.1302 71.6602 73.3502 71.5102 73.4902C71.4544 73.5464 71.3903 73.5936 71.3202 73.6302C71.2202 73.6802 71.1302 73.6902 71.0402 73.6802C70.5502 73.5702 69.3902 73.3202 67.5602 74.2402C65.6402 75.2102 64.9702 76.8802 64.9802 78.1202C65.0002 79.6002 65.7502 80.0502 68.3702 80.0902C71.8602 80.1502 73.3602 81.6702 73.4002 85.1802C73.4502 88.6202 71.6102 92.3302 68.7902 94.5902V94.5902ZM95.1302 34.0902L59.4302 56.1402C54.9802 58.7402 51.7002 61.6602 51.6902 67.0302V111.02C51.6902 114.23 52.9902 116.31 54.9802 116.92C54.3302 117.03 53.6602 117.11 53.0002 117.11C50.9102 117.11 48.8502 116.54 47.0402 115.47L9.31019 93.0702C5.62019 90.8802 3.3302 86.7902 3.3302 82.4002V37.6002C3.3302 33.2102 5.62019 29.1202 9.31019 26.9302L47.0502 4.53023C48.8602 3.46023 50.9202 2.89023 53.0102 2.89023C55.1002 2.89023 57.1602 3.46023 58.9702 4.53023L96.7102 26.9302C99.8202 28.7802 101.92 31.9702 102.51 35.5602C101.24 32.8902 98.4202 32.1702 95.1302 34.0902Z" fill="white"/>
</svg>
