<svg width="33" height="33" viewBox="0 0 33 33" fill="none" xmlns="http://www.w3.org/2000/svg">
<g clip-path="url(#clip0_1_10427)">
<path d="M18.7414 25.6536L18.7414 16.6034H21.6175L21.6175 24.4978C21.6533 27.9722 21.4009 29.0899 19.7579 30.1773C17.3099 31.5319 13.9615 30.5086 13.0175 28.148L15.3466 26.7212C16.1669 28.2008 16.9561 28.4077 17.9758 28.063C18.7299 27.8081 18.774 26.7258 18.7414 25.6536ZM22.9446 27.8133L25.2708 26.4716C25.8941 27.4297 26.4705 27.9562 27.5069 28.1715C28.9131 28.3427 30.3282 27.8603 30.0111 26.3669C29.6852 25.1466 27.1321 24.8501 25.3941 23.5456C23.6296 22.3605 23.2167 19.4815 24.666 17.8365C26.1227 15.9608 30.4851 15.6555 32.0896 18.7397L29.8477 20.1783C29.0298 18.2713 26.0812 18.6099 26.7191 20.7517C27.2999 22.2355 32.1985 22.2355 32.8471 25.8659C33.2497 27.7922 32.4605 29.2888 31.0896 30.0615C28.7281 31.3925 24.5132 30.944 22.9446 27.8133ZM16.9019 24.9632V17.5653L15.9521 15.9857H11.2204L5.8381 24.9632H16.9019ZM17.4429 14.764H19.4718L17.9576 12.3897V4.4087H19.6121C20.8498 4.4087 20.8498 2.65771 19.6121 2.65771H7.56047C6.32284 2.65771 6.32284 4.4087 7.56044 4.4087H9.21498V12.3897L0.829989 26.2951C0.0427063 27.6349 0.536916 28.4722 2.20878 28.4722H12.1056V26.7212H2.61616L10.9893 12.8371V4.4087H16.1832V12.8371L17.4429 14.764Z" fill="#FFCB6B"/>
</g>
<defs>
<clipPath id="clip0_1_10427">
<rect width="32.4881" height="32.4881" fill="white" transform="translate(0.464172 0.476074)"/>
</clipPath>
</defs>
</svg>
