<svg width="34" height="33" viewBox="0 0 34 33" fill="none" xmlns="http://www.w3.org/2000/svg">
<path d="M24.5342 23.1158C24.5342 21.9224 23.242 21.1725 22.2138 21.7692C21.1856 22.3659 21.1856 23.8657 22.2138 24.4624C23.242 25.0591 24.5342 24.3092 24.5342 23.1158ZM28.2028 20.176C29.2265 15.2827 26.8483 13.6719 23.0196 17.2139C19.4162 13.8357 16.7225 14.9737 17.8144 20.1536C12.7791 21.6716 13.1113 24.6788 17.854 26.1384C16.7689 30.9089 18.9237 32.7205 23.0185 29.1171C26.9904 32.6795 29.2268 30.9376 28.1425 26.1153C33.3155 24.3614 32.8504 21.6774 28.2028 20.176ZM27.2985 19.9351C26.487 19.7521 25.8444 19.6449 25.0457 19.5722C24.6249 18.9569 24.2291 18.4492 23.6659 17.8774C26.6681 14.9489 28.1243 16.1528 27.2985 19.9351ZM19.4672 24.3278C19.7709 24.9761 19.9506 25.1671 20.2509 25.6653C19.7619 25.6153 19.5908 25.5867 19.03 25.4874C19.2097 24.9845 19.2649 24.8348 19.4672 24.3278ZM19.4283 22.0414C19.2049 21.5052 19.1328 21.3249 18.9663 20.8431C19.5451 20.7231 19.7574 20.662 20.2492 20.6247C19.8832 21.1997 19.7588 21.4158 19.4283 22.0414ZM19.9681 23.1971C20.4688 22.1944 20.9356 21.3493 21.5227 20.4988C22.5646 20.4389 23.4767 20.4434 24.4956 20.5185C25.0671 21.3147 25.5378 22.1617 26.0504 23.1982C25.6668 23.9909 25.1814 24.7991 24.5536 25.7749C23.5055 25.8543 22.5548 25.8426 21.4632 25.7742C20.91 24.9266 20.4512 24.1387 19.9681 23.1971ZM26.5473 24.3137C26.7461 24.7961 26.8001 24.9499 26.9704 25.4499C26.4449 25.5605 26.2851 25.5886 25.773 25.643C26.1235 25.0999 26.2272 24.9136 26.5473 24.3137ZM25.7757 20.6365C26.334 20.7129 26.5125 20.7477 27.0325 20.8625C26.8585 21.3794 26.7964 21.5503 26.5742 22.0434C26.2573 21.4183 26.1422 21.2116 25.7757 20.6365ZM23.7552 19.4773C23.1176 19.4523 22.9226 19.4534 22.2639 19.4776C22.5522 19.0984 22.6492 18.9838 23.0017 18.5717C23.3452 18.9425 23.4415 19.0597 23.7552 19.4773ZM22.3519 17.8773C21.7886 18.4491 21.3929 18.9364 20.9721 19.5517C20.1735 19.6244 19.5118 19.7313 18.7002 19.9144C17.8856 16.065 19.2306 15.0138 22.3519 17.8773ZM18.0954 25.2525C14.2704 24.0822 14.0359 22.2406 18.0556 21.06C18.3015 21.8061 18.5498 22.4305 18.8866 23.1582C18.5593 23.9108 18.3179 24.5464 18.0954 25.2525ZM18.7786 26.3796C19.502 26.557 20.1287 26.6144 20.9317 26.6998C21.4149 27.3817 21.821 27.9088 22.3525 28.4561C19.6261 31.1305 17.7186 30.4982 18.7786 26.3796ZM22.9987 27.7894C22.6283 27.4058 22.4963 27.2429 22.1684 26.7712C22.8994 26.7866 23.1749 26.789 23.8466 26.7719C23.5213 27.2334 23.3827 27.3905 22.9987 27.7894ZM23.6636 28.454C24.2339 27.8344 24.6435 27.3168 25.0855 26.6809C25.8399 26.6254 26.4633 26.5347 27.2376 26.3581C28.1874 30.2114 26.5993 31.2537 23.6636 28.454ZM27.9021 25.2108C27.6828 24.5047 27.4536 23.9107 27.1309 23.1581C27.463 22.4304 27.6994 21.8276 27.9419 21.0814C31.3749 22.1028 32.1811 23.8937 27.9021 25.2108ZM13.3002 24.2277H7.45422L12.2983 16.148L16.5476 16.148C16.3137 17.0623 16.3091 17.6753 16.5569 19.0875C14.0837 19.971 12.5586 21.4216 13.3002 24.2277ZM19.8509 5.72866H18.3617V12.9116L19.1612 14.1651C18.6127 14.2167 18.1122 14.4146 17.6981 14.7419L16.7648 13.3142V5.72866H12.0903V13.3142L4.55446 25.8099H13.0949V27.3858H4.18782C2.68315 27.3858 2.23836 26.6323 2.94691 25.4264L10.4934 12.9116V5.72866H9.00432C7.89048 5.72866 7.89048 4.15277 9.00434 4.15277H19.8509C20.9647 4.15277 20.9647 5.72866 19.8509 5.72866Z" fill="#4DD0E1"/>
</svg>
