<svg width="33" height="34" viewBox="0 0 33 34" fill="none" xmlns="http://www.w3.org/2000/svg">
<path fill-rule="evenodd" clip-rule="evenodd" d="M3.40517 3.95302V30.4633H29.9154V3.95302H3.40517ZM23.5491 16.8293V16.8297C23.8033 16.8305 24.0922 16.8436 24.3095 16.8672C25.1944 16.9629 25.8835 17.3447 26.4698 18.0638C26.7618 18.422 26.8617 18.5787 26.8404 18.6457C26.8267 18.689 26.6263 18.8325 25.9894 19.2553C25.3638 19.6706 25.1622 19.795 25.1154 19.795C25.068 19.795 24.9691 19.6933 24.8266 19.4979C24.5521 19.1218 24.2719 18.9501 23.8386 18.8928C23.3727 18.8311 22.9548 18.978 22.7502 19.2755C22.5752 19.5296 22.5488 19.9386 22.6879 20.2357C22.8489 20.58 23.1406 20.7702 24.2581 21.2603C25.5469 21.8254 26.2001 22.2122 26.6758 22.6923C27.188 23.2093 27.4476 23.8062 27.5273 24.6505C27.5662 25.062 27.5186 25.5497 27.4009 25.9463C27.1121 26.9184 26.3327 27.6302 25.1904 27.9652C24.8746 28.0578 24.5808 28.1131 24.2901 28.1344C23.8465 28.1671 23.2113 28.1491 22.8291 28.0934C21.862 27.9526 20.7703 27.3898 20.2259 26.7516C19.9587 26.4384 19.6175 25.9229 19.6175 25.8322C19.6175 25.7885 19.6392 25.7636 19.7251 25.709C19.9799 25.5471 21.4401 24.7124 21.4684 24.7124C21.4855 24.7124 21.5618 24.8023 21.6378 24.9122C21.8101 25.1609 22.2337 25.5884 22.449 25.731C22.6249 25.8475 22.8498 25.941 23.1169 26.0085C23.2698 26.0467 23.3508 26.0535 23.6845 26.0535C24.0255 26.0533 24.0955 26.0476 24.248 26.0066C24.6515 25.898 24.9665 25.6733 25.0999 25.3989C25.1584 25.2803 25.1596 25.2655 25.1596 24.9778V24.6796L25.0879 24.5373C24.9142 24.1925 24.5399 23.9559 23.3566 23.4434C22.813 23.2079 22.1473 22.8759 21.8874 22.7108C21.2943 22.3338 20.8832 21.9029 20.6134 21.3754C20.3451 20.8509 20.305 20.6556 20.3044 19.8669C20.3037 19.2495 20.3027 19.257 20.4305 18.8629C20.5465 18.5053 20.7839 18.1058 21.046 17.8273C21.5692 17.2712 22.3334 16.9139 23.1516 16.8428C23.2563 16.8329 23.3965 16.829 23.549 16.8294L23.5491 16.8293ZM16.5083 16.9513H16.5085C18.0844 16.9521 18.9877 16.9575 19.0022 16.9667C19.0295 16.9836 19.0329 17.1207 19.0329 17.996V19.0058L17.4604 19.0115L15.888 19.0172V23.4819C15.888 25.9376 15.883 27.9612 15.8762 27.9791C15.865 28.0092 15.7441 28.0115 14.7209 28.0115H13.5781L13.5663 27.9653C13.5587 27.9399 13.5532 25.9162 13.553 23.4681L13.5526 19.017L11.9802 19.0114L10.4077 19.0057V18.0078C10.4077 17.2164 10.4131 17.0045 10.4342 16.9834C10.4558 16.9611 11.2583 16.9554 14.7162 16.9519C15.383 16.9513 15.9829 16.951 16.5083 16.9513Z" fill="#0288D1"/>
</svg>
